<?xml version="1.0" encoding="UTF-8" standalone="no"?>
<svg
   width="42"
   height="42"
   viewBox="0 0 42 42"
   fill="none"
   version="1.1"
   id="svg6957"
   sodipodi:docname="icon-design.svg"
   inkscape:version="1.2.2 (732a01da63, 2022-12-09)"
   xmlns:inkscape="http://www.inkscape.org/namespaces/inkscape"
   xmlns:sodipodi="http://sodipodi.sourceforge.net/DTD/sodipodi-0.dtd"
   xmlns="http://www.w3.org/2000/svg"
   xmlns:svg="http://www.w3.org/2000/svg">
  <sodipodi:namedview
     id="namedview6959"
     pagecolor="#ffffff"
     bordercolor="#000000"
     borderopacity="0.25"
     inkscape:showpageshadow="2"
     inkscape:pageopacity="0.0"
     inkscape:pagecheckerboard="0"
     inkscape:deskcolor="#d1d1d1"
     showgrid="false"
     inkscape:zoom="17.307762"
     inkscape:cx="14.415498"
     inkscape:cy="21.031026"
     inkscape:window-width="1920"
     inkscape:window-height="1009"
     inkscape:window-x="2552"
     inkscape:window-y="-8"
     inkscape:window-maximized="1"
     inkscape:current-layer="svg6957" />
  <defs
     id="defs6955">
    <linearGradient
       id="paint0_linear"
       x1="3.26667"
       y1="1"
       x2="37.8"
       y2="39.1334"
       gradientUnits="userSpaceOnUse"
       gradientTransform="translate(25.437196,-0.77702047)">
      <stop
         offset="0.259336"
         stop-color="#FFDB6E"
         id="stop6930" />
      <stop
         offset="1"
         stop-color="#FFBC5E"
         id="stop6932" />
    </linearGradient>
    <linearGradient
       id="paint1_linear"
       x1="29.602"
       y1="29.21"
       x2="36.1781"
       y2="36.4484"
       gradientUnits="userSpaceOnUse">
      <stop
         offset="0.259336"
         stop-color="#FFDB6E"
         id="stop6935" />
      <stop
         offset="1"
         stop-color="#FFBC5E"
         id="stop6937" />
    </linearGradient>
    <linearGradient
       id="paint2_linear"
       x1="29.602"
       y1="29.21"
       x2="36.1781"
       y2="36.4484"
       gradientUnits="userSpaceOnUse">
      <stop
         offset="0.259336"
         stop-color="#FFDB6E"
         id="stop6940" />
      <stop
         offset="1"
         stop-color="#FFBC5E"
         id="stop6942" />
    </linearGradient>
    <linearGradient
       id="paint3_linear"
       x1="3.26667"
       y1="1"
       x2="37.8"
       y2="39.1334"
       gradientUnits="userSpaceOnUse">
      <stop
         offset="0.259336"
         stop-color="#FFDB6E"
         id="stop6945" />
      <stop
         offset="1"
         stop-color="#FFBC5E"
         id="stop6947" />
    </linearGradient>
    <linearGradient
       id="paint4_linear"
       x1="3.26667"
       y1="1"
       x2="37.8"
       y2="39.1334"
       gradientUnits="userSpaceOnUse">
      <stop
         offset="0.259336"
         stop-color="#FFDB6E"
         id="stop6950" />
      <stop
         offset="1"
         stop-color="#FFBC5E"
         id="stop6952" />
    </linearGradient>
    <linearGradient
       id="paint0_linear-8"
       x1="22.126549"
       y1="23.849894"
       x2="27.658821"
       y2="23.615065"
       gradientUnits="userSpaceOnUse"
       gradientTransform="matrix(13.555653,0,0,10.784228,-347.70386,10.864126)">
      <stop
         offset="0.259336"
         stop-color="#FFDB6E"
         id="stop13278" />
      <stop
         offset="1"
         stop-color="#FFBC5E"
         id="stop13280" />
    </linearGradient>
  </defs>
  <g
     id="g6965"
     transform="matrix(0.08093505,0,0,0.09272801,0.47188121,-2.8098688)"
     style="fill:#000000;fill-opacity:1">
	<g
   id="g6963"
   style="fill:#ffdb6e;fill-opacity:0.54901963">
		<path
   d="m 244.606,137.494 c -26.153,0 -47.432,21.278 -47.432,47.431 0,26.153 21.278,47.432 47.432,47.432 26.154,0 47.431,-21.278 47.431,-47.432 -10e-4,-26.155 -21.278,-47.431 -47.431,-47.431 z m 0,77.383 c -16.515,0 -29.953,-13.437 -29.953,-29.953 0,-16.516 13.437,-29.952 29.953,-29.952 16.515,0 29.952,13.437 29.952,29.952 -10e-4,16.516 -13.438,29.953 -29.952,29.953 z"
   id="path6961"
   style="fill:#ffdb6e;fill-opacity:1" />

	</g>

</g>
  <g
     id="g6971"
     transform="matrix(0.08093505,0,0,0.09272801,0.47188121,-2.8098688)"
     style="fill:#ffdb6e;fill-opacity:0.54901963">
	<g
   id="g6969"
   style="fill:#ffdb6e;fill-opacity:0.54901963">
		<path
   d="m 452.072,123.043 c -17.141,0 -31.087,13.946 -31.087,31.087 0,17.141 13.946,31.087 31.087,31.087 17.141,0 31.087,-13.946 31.087,-31.087 -10e-4,-17.141 -13.947,-31.087 -31.087,-31.087 z m 0,44.695 c -7.503,0 -13.608,-6.105 -13.608,-13.608 0,-7.503 6.104,-13.608 13.608,-13.608 7.504,0 13.608,6.105 13.608,13.608 -0.001,7.504 -6.105,13.608 -13.608,13.608 z"
   id="path6967"
   style="fill:#ffdb6e;fill-opacity:1" />

	</g>

</g>
  <g
     id="g6977"
     transform="matrix(0.08093505,0,0,0.09272801,0.47188121,-2.8098688)"
     style="fill:#000000;fill-opacity:1">
	<g
   id="g6975"
   style="fill:#000000;fill-opacity:1">
		<path
   d="m 476.794,39.399 -127.09,-0.005 c -19.411,0 -35.203,15.797 -35.203,35.214 v 40.122 h -52.404 c -0.012,0 -0.022,-0.001 -0.034,-0.001 H 71.242 c -0.022,0 -0.044,0.001 -0.068,0.001 H 37.35 C 16.755,114.73 0,131.486 0,152.08 v 224.414 c 0,20.595 16.755,37.35 37.35,37.35 h 133.817 l -11.799,47.928 c -0.01,0.041 -0.014,0.083 -0.023,0.124 -0.048,0.21 -0.086,0.423 -0.119,0.639 -0.016,0.104 -0.035,0.207 -0.048,0.312 -0.024,0.207 -0.035,0.418 -0.044,0.632 -0.005,0.107 -0.015,0.216 -0.016,0.324 0,0.021 -0.003,0.041 -0.003,0.061 0,0.261 0.016,0.519 0.038,0.774 0.003,0.033 0.001,0.066 0.005,0.099 0.031,0.32 0.083,0.636 0.148,0.946 0.008,0.04 0.021,0.078 0.03,0.119 0.061,0.267 0.132,0.53 0.216,0.787 0.024,0.073 0.054,0.146 0.08,0.219 0.079,0.22 0.164,0.437 0.26,0.649 0.04,0.087 0.083,0.174 0.126,0.26 0.096,0.193 0.197,0.383 0.305,0.568 0.054,0.091 0.107,0.181 0.164,0.27 0.114,0.179 0.237,0.352 0.364,0.522 0.043,0.058 0.079,0.121 0.125,0.179 0.02,0.024 0.043,0.047 0.063,0.071 0.154,0.192 0.317,0.374 0.486,0.552 0.045,0.048 0.086,0.099 0.133,0.146 0.217,0.218 0.444,0.423 0.683,0.616 0.063,0.051 0.129,0.096 0.193,0.146 0.182,0.14 0.367,0.275 0.559,0.401 0.083,0.054 0.169,0.103 0.254,0.154 0.183,0.111 0.369,0.217 0.562,0.313 0.089,0.045 0.178,0.087 0.268,0.129 0.197,0.092 0.396,0.175 0.601,0.252 0.09,0.034 0.179,0.068 0.269,0.099 0.212,0.072 0.428,0.133 0.646,0.189 0.089,0.023 0.175,0.049 0.263,0.068 0.231,0.051 0.465,0.09 0.703,0.121 0.079,0.01 0.157,0.027 0.238,0.036 0.315,0.034 0.634,0.055 0.957,0.055 h 105.359 69.171 c 4.828,0 8.74,-3.913 8.74,-8.74 0,-4.826 -3.912,-8.739 -8.74,-8.739 h -58.021 l 10.161,-41.278 152.849,-0.005 c 18.427,0 33.42,-14.986 33.42,-33.408 v -75.6 c 17.535,-1.994 31.204,-16.913 31.204,-34.972 V 74.605 C 512,55.191 496.206,39.399 476.794,39.399 Z M 359.942,74.605 c 0,-9.774 7.952,-17.726 17.727,-17.726 h 99.125 c 9.775,-10e-4 17.727,7.951 17.727,17.726 V 84.908 H 359.942 Z m -0.001,27.78 H 494.52 v 138.593 h -4.179 l -43.979,-48.396 c -1.657,-1.822 -4.006,-2.862 -6.468,-2.862 -2.462,0 -4.811,1.039 -6.468,2.862 L 420.94,206.32 389.934,172.213 c -1.656,-1.821 -4.005,-2.861 -6.467,-2.861 -2.461,0 -4.81,1.039 -6.466,2.862 l -17.059,18.768 v -88.597 z m 106.782,138.593 h -14.276 l -19.695,-21.664 7.142,-7.859 z m -106.78,-24.707 0.347,0.315 23.179,-25.501 45.358,49.893 H 359.943 Z M 331.98,74.609 c 0,-8.911 6.609,-16.288 15.175,-17.53 -2.978,5.166 -4.693,11.147 -4.693,17.527 V 269.86 c 0,6.375 1.712,12.355 4.688,17.518 -8.564,-1.245 -15.171,-8.615 -15.171,-17.518 V 74.609 Z m -276.679,236.823 70.306,-72.26 93.467,102.804 H 55.301 Z m 147.222,-13.656 20.999,-23.107 61.163,67.305 h -41.991 v 0.001 z M 41.875,396.364 H 37.35 c -10.957,0.001 -19.871,-8.913 -19.871,-19.87 V 152.08 c 0,-10.957 8.914,-19.871 19.871,-19.871 h 4.525 c -2.583,4.74 -4.053,10.172 -4.053,15.938 V 380.43 c 0,5.766 1.469,11.195 4.053,15.934 z m 224.489,58.758 h -87.358 l 10.161,-41.278 h 87.358 z m 196.953,-74.69 c 0,8.783 -7.151,15.929 -15.941,15.929 H 71.242 c -8.79,0 -15.941,-7.145 -15.941,-15.929 v -20.977 h 408.016 z m 0,-38.456 H 308.303 l -78.312,-86.178 c -1.657,-1.822 -4.005,-2.862 -6.468,-2.862 -2.462,0 -4.811,1.039 -6.467,2.862 l -26.344,28.987 -58.423,-64.245 c -1.622,-1.783 -3.908,-2.818 -6.318,-2.858 -2.434,-0.008 -4.731,0.916 -6.411,2.644 L 55.302,286.369 V 148.148 c 0,-8.778 7.133,-15.92 15.907,-15.938 h 243.293 v 137.65 c 0,19.41 15.792,35.202 35.203,35.202 l 113.613,0.003 v 36.911 z m 31.204,-72.117 c 0,9.775 -7.952,17.727 -17.727,17.727 l -99.193,-0.003 c -9.744,-0.037 -17.66,-7.972 -17.66,-17.724 V 258.457 H 494.52 v 11.402 z"
   id="path6973"
   style="fill:#ffdb6e;fill-opacity:1" />

	<path
   opacity="0.15"
   fill-rule="evenodd"
   clip-rule="evenodd"
   d="m 183.64874,406.51173 c 13.63336,0.50602 -53.07436,58.16429 -4.63812,57.04159 l 92.90183,-2.15337 c 6.55332,-0.1519 -13.11641,-52.93606 19.99215,-53.62822 l 165.80045,-3.46618 c -3.76152,0.0786 132.47987,-362.189931 31.08097,-349.733809 -24.62345,3.024814 -131.76582,-7.27389 -146.23666,-0.177929 -11.89844,5.834551 -21.02008,74.110708 -34.68955,68.776228 -11.95377,-4.66494 -260.139424,2.5337 -274.765524,2.5337 l -19.942723,11.91064 -2.95819,151.45272 1.202316,111.05123 z"
   fill="url(#paint0_linear)"
   id="path13274"
   style="fill:url(#paint0_linear-8);stroke-width:12.0908"
   sodipodi:nodetypes="ssssssssccccs" />
</g>

</g>
</svg>
