<?xml version="1.0" encoding="UTF-8" standalone="no"?>
<svg
   width="200"
   height="150"
   viewBox="0 0 200 150"
   version="1.1"
   id="svg554"
   sodipodi:docname="icon-cntrlr.svg"
   inkscape:version="1.2.2 (732a01da63, 2022-12-09)"
   xmlns:inkscape="http://www.inkscape.org/namespaces/inkscape"
   xmlns:sodipodi="http://sodipodi.sourceforge.net/DTD/sodipodi-0.dtd"
   xmlns="http://www.w3.org/2000/svg"
   xmlns:svg="http://www.w3.org/2000/svg">
  <sodipodi:namedview
     id="namedview556"
     pagecolor="#ffffff"
     bordercolor="#000000"
     borderopacity="0.25"
     inkscape:showpageshadow="2"
     inkscape:pageopacity="0.0"
     inkscape:pagecheckerboard="0"
     inkscape:deskcolor="#d1d1d1"
     showgrid="false"
     inkscape:zoom="6.04"
     inkscape:cx="73.096026"
     inkscape:cy="67.880795"
     inkscape:window-width="2560"
     inkscape:window-height="1369"
     inkscape:window-x="-8"
     inkscape:window-y="-8"
     inkscape:window-maximized="1"
     inkscape:current-layer="g440" />
  <!-- Gradient Definition -->
  <defs
     id="defs526">
    <linearGradient
       id="controllerGradient"
       x1="0"
       y1="0"
       x2="1"
       y2="1"
       gradientUnits="userSpaceOnUse">
      <stop
         offset="0%"
         stop-color="#FFDB6E"
         id="stop521" />
      <stop
         offset="100%"
         stop-color="#FFBC5E"
         id="stop523" />
    </linearGradient>
    <linearGradient
       id="paint0_linear"
       x1="3.6986699"
       y1="4.8982501"
       x2="22.5688"
       y2="37.252201"
       gradientUnits="userSpaceOnUse"
       gradientTransform="matrix(2.5630488,0,0,2.5983534,367.33234,31.136149)">
      <stop
         offset="0.259336"
         stop-color="#FFDB6E"
         id="stop1833" />
      <stop
         offset="1"
         stop-color="#FFBC5E"
         id="stop1835" />
    </linearGradient>
  </defs>
  <!-- Controller Body -->
  <g
     id="g440"
     transform="matrix(0.39016035,0,0,0.38485912,8.5369016,-12.65744)">
		<path
   d="m 380.95878,330.04836 c 1.8661,0 3.38301,1.44657 3.38301,3.22867 0,1.7961 -1.51691,3.24265 -3.38301,3.24265 -1.86273,0 -3.37963,-1.44655 -3.37963,-3.24265 0,-1.7821 1.5169,-3.22867 3.37963,-3.22867 z"
   id="path422"
   style="fill:#ffdb6e;fill-opacity:0.54902;stroke-width:1.09891" />

		<path
   d="m 349.7606,252.4871 c 1.86834,0 3.37627,1.44656 3.37627,3.23082 0,1.79395 -1.50793,3.24051 -3.37627,3.24051 -1.86722,0 -3.37739,-1.44656 -3.37739,-3.24051 0,-1.78426 1.51017,-3.23082 3.37739,-3.23082 z"
   id="path424"
   style="fill:#ffdb6e;fill-opacity:0.54902;stroke-width:1.09891" />

		<path
   d="m 353.07848,232.89566 c -5.71618,0 -11.13258,2.51992 -14.84232,6.89939 -0.13361,0.16992 -0.30091,0.33986 -0.46933,0.48505 l -36.89079,34.61949 c -0.20098,0.20865 -0.40196,0.413 -0.63101,0.60014 -4.34301,3.53304 -6.81766,8.60298 -6.81766,13.9106 0,10.14095 8.60964,18.38365 19.18308,18.38365 5.8004,0 11.25159,-2.56402 14.96695,-7.03597 0.13361,-0.17854 0.31102,-0.36567 0.48168,-0.51841 l 34.88771,-32.98256 c 0.32337,-0.34954 0.65908,-0.63777 1.07789,-0.90343 5.15815,-3.4427 8.26382,-9.08266 8.26382,-15.08398 -0.0179,-10.13666 -8.62311,-18.37397 -19.21002,-18.37397 z m -34.51494,59.7627 c -4.79661,0 -8.68825,-3.73415 -8.68825,-8.31689 0,-4.58275 3.904,-8.31689 8.68825,-8.31689 4.78426,0 8.68825,3.73414 8.68825,8.31689 0,4.58274 -3.89725,8.31689 -8.68825,8.31689 z m 31.19706,-28.62031 c -4.79211,0 -8.68039,-3.7374 -8.68039,-8.32013 0,-4.5752 3.90175,-8.31259 8.68039,-8.31259 4.7809,0 8.68151,3.73739 8.68151,8.31259 0,4.59349 -3.88939,8.32013 -8.68151,8.32013 z"
   id="path426"
   style="fill:#ffdb6e;fill-opacity:0.54902;stroke-width:1.09891" />

		<path
   d="m 318.56354,281.09558 c 1.86947,0 3.38301,1.44979 3.38301,3.23407 0,1.7907 -1.51354,3.24049 -3.38301,3.24049 -1.86273,0 -3.383,-1.44979 -3.383,-3.24049 0,-1.78535 1.51915,-3.23407 3.383,-3.23407 z"
   id="path428"
   style="fill:#ffdb6e;fill-opacity:0.54902;stroke-width:1.09891" />

		<path
   id="rect430"
   style="fill:#ffdb6e;fill-opacity:0.54902;stroke-width:1.09891"
   d="m 165.97472,225.90164 h 76.86144 v 19.59682 h -76.86144 z" />

		<path
   d="m 415.46137,281.84629 c -5.71843,0 -11.13482,2.51669 -14.82997,6.89831 -0.14259,0.16884 -0.30541,0.33769 -0.47157,0.4915 l -36.90876,34.61519 c -0.18189,0.21403 -0.38849,0.39364 -0.62428,0.59799 -4.34412,3.54486 -6.83225,8.61589 -6.83225,13.91167 0,10.13989 8.61077,18.38365 19.18645,18.38365 5.79927,0 11.24598,-2.56401 14.95796,-7.02951 0.15383,-0.18715 0.3301,-0.35492 0.49516,-0.52486 l 34.85627,-32.9546 c 0.33123,-0.3431 0.68379,-0.65929 1.09698,-0.93248 5.175,-3.44376 8.27505,-9.08802 8.27505,-15.08505 -0.0112,-10.12913 -8.61638,-18.37181 -19.20104,-18.37181 z m -34.50259,59.76486 c -4.79323,0 -8.68263,-3.7374 -8.68263,-8.33412 0,-4.58381 3.89612,-8.31043 8.68263,-8.31043 4.78539,0 8.686,3.73845 8.686,8.31043 0,4.58597 -3.88939,8.33412 -8.686,8.33412 z m 31.19033,-28.61173 c -4.78764,0 -8.68264,-3.73308 -8.68264,-8.3115 0,-4.57845 3.89613,-8.32121 8.68264,-8.32121 4.78538,0 8.686,3.732 8.686,8.32121 0.001,4.59134 -3.88828,8.3115 -8.686,8.3115 z"
   id="path432"
   style="fill:#ffdb6e;fill-opacity:0.54902;stroke-width:1.09891" />

		<path
   d="m 412.14911,301.43666 c 1.86834,0 3.383,1.45085 3.383,3.2405 0,1.78426 -1.51466,3.24049 -3.383,3.24049 -1.86273,0 -3.3774,-1.45623 -3.3774,-3.24049 0,-1.79073 1.51467,-3.2405 3.3774,-3.2405 z"
   id="path434"
   style="fill:#ffdb6e;fill-opacity:0.54902;stroke-width:1.09891" />

		<path
   d="m 360.1993,181.27456 h -81.39643 v -38.08693 c 0,-3.18996 -2.69921,-5.78085 -6.03506,-5.78085 H 235.98818 V 93.594926 c 0,-0.674342 -0.17628,-1.303514 -0.39972,-1.907948 0.22344,-0.599058 0.39972,-1.231456 0.39972,-1.9058 0,-23.45573 19.92413,-42.540603 44.39448,-42.540603 24.5074,0 44.4012,19.084873 44.4012,42.540603 0,0.790499 0.16955,1.535825 0.47046,2.22415 -0.30091,0.688324 -0.47046,1.433651 -0.47046,2.227375 0,29.829187 25.32705,54.094777 56.47022,54.094777 h 90.9335 c 3.33585,0 6.03507,-2.59091 6.03507,-5.78086 0,-3.19211 -2.69922,-5.78085 -6.03507,-5.78085 h -90.89757 c -24.49056,0 -44.4057,-19.0795 -44.4057,-42.533067 0,-0.792649 -0.15495,-1.539051 -0.46035,-2.227375 0.3054,-0.688325 0.46035,-1.433651 0.46035,-2.22415 0,-29.832412 -25.32144,-54.103379 -56.46684,-54.103379 -31.1443,0 -56.47584,24.270967 -56.47584,54.103379 0,0.674344 0.17965,1.306742 0.40421,1.9058 -0.22456,0.604434 -0.40421,1.233606 -0.40421,1.907948 V 137.4057 h -36.77514 c -3.33584,0 -6.03618,2.59197 -6.03618,5.78084 v 38.08693 h -74.28797 c -69.212885,0.001 -125.513556,53.927 -125.513556,120.21804 0,66.28779 56.300671,120.22232 125.511316,120.22232 38.85682,0 74.62705,-16.76393 98.64266,-46.09193 h 56.07275 c 24.01898,29.31186 59.78921,46.09193 98.64828,46.09193 69.20728,0 125.50795,-53.93453 125.50795,-120.22232 -0.004,-66.29104 -56.30628,-120.21695 -125.51244,-120.21695 z M 153.36117,322.48432 c 0,3.18996 -2.69922,5.78193 -6.03507,5.78193 h -27.81405 v 26.63494 c 0,3.18565 -2.69697,5.78192 -6.03506,5.78192 H 72.990987 c -3.335845,0 -6.035062,-2.59627 -6.035062,-5.78192 V 328.26625 H 39.144114 c -3.335845,0 -6.035061,-2.59197 -6.035061,-5.78193 v -38.78601 c 0,-3.19747 2.700339,-5.78085 6.035061,-5.78085 H 66.955925 V 251.2793 c 0,-3.19532 2.70034,-5.78084 6.035062,-5.78084 h 40.486003 c 3.33921,0 6.03506,2.58552 6.03506,5.78084 v 26.63816 h 27.81405 c 3.33585,0 6.03507,2.58338 6.03507,5.78085 z m 0.54231,-71.21577 v -31.15422 c 0,-3.1921 2.69697,-5.78084 6.03506,-5.78084 h 88.93267 c 3.33697,0 6.03618,2.58767 6.03618,5.78084 v 31.15422 c 0,3.19534 -2.69921,5.78085 -6.03618,5.78085 h -88.93267 c -3.3437,0 -6.03506,-2.58551 -6.03506,-5.78085 z m 65.7221,64.80037 -19.58055,18.75469 c -1.17781,1.13144 -2.72167,1.69501 -4.26665,1.69501 -1.54384,0 -3.09107,-0.56357 -4.26777,-1.69501 -2.36012,-2.25748 -2.36012,-5.91528 0,-8.17493 l 19.58055,-18.75469 c 2.35788,-2.25748 6.17317,-2.25748 8.53442,0 2.35227,2.25964 2.34666,5.92928 0,8.17493 z m 37.95857,-0.20328 -19.79275,18.95905 c -1.16996,1.13144 -2.71718,1.69499 -4.26777,1.69499 -1.54386,0 -3.09108,-0.56355 -4.27227,-1.69499 -2.36125,-2.25749 -2.36125,-5.91529 0,-8.17493 l 19.79837,-18.95689 c 2.36239,-2.25963 6.16419,-2.25963 8.53555,0 2.35564,2.26717 2.34329,5.92174 -0.001,8.17277 z m 9.14747,-134.59108 h -73.54915 v -32.30609 h 73.54915 z m 45.86648,138.08756 c -17.22828,0 -31.26218,-13.43093 -31.26218,-29.95179 0,-8.5363 3.87815,-16.65423 10.66886,-22.37916 0.0236,-0.0237 0.0528,-0.0581 0.0876,-0.0796 l 37.00195,-34.71521 c 6.00137,-6.94133 14.71881,-10.91425 24.00663,-10.91425 17.22378,0 31.26331,13.42663 31.26331,29.93998 0,9.58598 -4.83367,18.60196 -12.95489,24.22579 l -34.63396,32.73519 c -6.01148,7.08545 -14.80639,11.13903 -24.1773,11.13903 z m 121.20425,5.0807 -34.65529,32.75565 c -5.99465,7.07468 -14.77609,11.11644 -24.16495,11.11644 -17.2294,0 -31.2577,-13.42556 -31.2577,-29.93889 0,-8.52986 3.88378,-16.65962 10.66326,-22.38452 0.0236,-0.0333 0.064,-0.057 0.0876,-0.0785 l 37.02216,-34.71091 c 5.99464,-6.94347 14.71095,-10.92393 23.98754,-10.92393 17.22828,0 31.27341,13.43201 31.27341,29.95073 -0.0359,9.56341 -4.84377,18.57399 -12.95601,24.21396 z"
   id="path436"
   style="fill:#ffdb6e;fill-opacity:1;stroke-width:1.09891" />

		<path
   d="M 107.4408,283.69831 V 257.06123 H 79.026048 v 26.63708 c 0,3.18995 -2.69697,5.77978 -6.035061,5.77978 h -27.81181 v 27.22001 h 27.81181 c 3.339214,0 6.035061,2.58013 6.035061,5.78192 v 26.62955 H 107.4408 v -26.62955 c 0,-3.20179 2.70034,-5.78192 6.03506,-5.78192 h 27.81406 v -27.22001 h -27.81406 c -3.33472,0 -6.03506,-2.59089 -6.03506,-5.77978 z"
   id="path438"
   style="fill:#ffdb6e;fill-opacity:0.548936;stroke-width:1.09891" />

	</g>
  <!-- Wire -->
  <!-- D-Pad -->
  <!-- Select Button -->
  <!-- Action Buttons -->
  <!-- Decorative Lines -->
</svg>
