<svg width="40" height="40" viewBox="0 0 40 40" fill="none" xmlns="http://www.w3.org/2000/svg">
  <!-- Background opacity layer with network topology -->
  <path opacity="0.15" fill-rule="evenodd" clip-rule="evenodd"
    d="M20 4C21.1046 4 22 4.89543 22 6V10H18V6C18 4.89543 18.8954 4 20 4ZM8 14C9.10457 14 10 14.8954 10 16V20H6V16C6 14.8954 6.89543 14 8 14ZM32 14C33.1046 14 34 14.8954 34 16V20H30V16C30 14.8954 30.8954 14 32 14ZM20 30C21.1046 30 22 30.8954 22 32V36H18V32C18 30.8954 18.8954 30 20 30Z"
    fill="url(#paint0_linear)"/>

  <!-- Central server/router -->
  <rect x="14" y="16" width="12" height="10" rx="1.5" stroke="url(#paint1_linear)" stroke-width="1.5" fill="url(#paint2_linear)" opacity="0.3"/>

  <!-- Server detail lines -->
  <line x1="16" y1="18.5" x2="24" y2="18.5" stroke="url(#paint3_linear)" stroke-width="0.8" opacity="0.7"/>
  <line x1="16" y1="20.5" x2="24" y2="20.5" stroke="url(#paint4_linear)" stroke-width="0.8" opacity="0.7"/>
  <line x1="16" y1="22.5" x2="24" y2="22.5" stroke="url(#paint5_linear)" stroke-width="0.8" opacity="0.7"/>

  <!-- Server indicator lights -->
  <circle cx="23" cy="18.5" r="0.8" fill="#FFDB6E"/>
  <circle cx="23" cy="20.5" r="0.8" fill="#FFDB6E" opacity="0.6"/>
  <circle cx="23" cy="22.5" r="0.8" fill="#FFDB6E" opacity="0.4"/>

  <!-- Top node (client/device) -->
  <rect x="16" y="2" width="8" height="8" rx="1.5" stroke="url(#paint6_linear)" stroke-width="1.5" fill="none"/>
  <circle cx="20" cy="6" r="2" fill="url(#paint7_linear)"/>

  <!-- Left node (client/device) -->
  <rect x="2" y="14" width="8" height="8" rx="1.5" stroke="url(#paint8_linear)" stroke-width="1.5" fill="none"/>
  <circle cx="6" cy="18" r="2" fill="url(#paint9_linear)"/>

  <!-- Right node (client/device) -->
  <rect x="30" y="14" width="8" height="8" rx="1.5" stroke="url(#paint10_linear)" stroke-width="1.5" fill="none"/>
  <circle cx="34" cy="18" r="2" fill="url(#paint11_linear)"/>

  <!-- Bottom node (client/device) -->
  <rect x="16" y="30" width="8" height="8" rx="1.5" stroke="url(#paint12_linear)" stroke-width="1.5" fill="none"/>
  <circle cx="20" cy="34" r="2" fill="url(#paint13_linear)"/>

  <!-- Connection lines from central router to nodes -->
  <path d="M20 10L20 16" stroke="url(#paint14_linear)" stroke-width="1.5" stroke-linecap="round"/>
  <path d="M14 21L10 18" stroke="url(#paint15_linear)" stroke-width="1.5" stroke-linecap="round"/>
  <path d="M26 21L30 18" stroke="url(#paint16_linear)" stroke-width="1.5" stroke-linecap="round"/>
  <path d="M20 26L20 30" stroke="url(#paint17_linear)" stroke-width="1.5" stroke-linecap="round"/>

  <!-- Data flow indicators (small circles along connection lines) -->
  <circle cx="20" cy="13" r="1" fill="#FFDB6E" opacity="0.8">
    <animate attributeName="cy" values="10;13;16" dur="2s" repeatCount="indefinite"/>
  </circle>
  <circle cx="20" cy="28" r="1" fill="#FFDB6E" opacity="0.8">
    <animate attributeName="cy" values="26;28;30" dur="2s" repeatCount="indefinite"/>
  </circle>

  <!-- Additional connection decorations -->
  <circle cx="12" cy="19.5" r="0.5" fill="#FFBC5E" opacity="0.6"/>
  <circle cx="28" cy="19.5" r="0.5" fill="#FFBC5E" opacity="0.6"/>

  <defs>
    <linearGradient id="paint0_linear" x1="6" y1="4" x2="34" y2="36" gradientUnits="userSpaceOnUse">
      <stop offset="0.259336" stop-color="#FFDB6E"/>
      <stop offset="1" stop-color="#FFBC5E"/>
    </linearGradient>
    <linearGradient id="paint1_linear" x1="14" y1="16" x2="26" y2="26" gradientUnits="userSpaceOnUse">
      <stop offset="0.259336" stop-color="#FFDB6E"/>
      <stop offset="1" stop-color="#FFBC5E"/>
    </linearGradient>
    <linearGradient id="paint2_linear" x1="14" y1="16" x2="26" y2="26" gradientUnits="userSpaceOnUse">
      <stop offset="0.259336" stop-color="#FFDB6E"/>
      <stop offset="1" stop-color="#FFBC5E"/>
    </linearGradient>
    <linearGradient id="paint3_linear" x1="16" y1="18.5" x2="24" y2="18.5" gradientUnits="userSpaceOnUse">
      <stop offset="0.259336" stop-color="#FFDB6E"/>
      <stop offset="1" stop-color="#FFBC5E"/>
    </linearGradient>
    <linearGradient id="paint4_linear" x1="16" y1="20.5" x2="24" y2="20.5" gradientUnits="userSpaceOnUse">
      <stop offset="0.259336" stop-color="#FFDB6E"/>
      <stop offset="1" stop-color="#FFBC5E"/>
    </linearGradient>
    <linearGradient id="paint5_linear" x1="16" y1="22.5" x2="24" y2="22.5" gradientUnits="userSpaceOnUse">
      <stop offset="0.259336" stop-color="#FFDB6E"/>
      <stop offset="1" stop-color="#FFBC5E"/>
    </linearGradient>
    <linearGradient id="paint6_linear" x1="16" y1="2" x2="24" y2="10" gradientUnits="userSpaceOnUse">
      <stop offset="0.259336" stop-color="#FFDB6E"/>
      <stop offset="1" stop-color="#FFBC5E"/>
    </linearGradient>
    <linearGradient id="paint7_linear" x1="18" y1="4" x2="22" y2="8" gradientUnits="userSpaceOnUse">
      <stop offset="0.259336" stop-color="#FFDB6E"/>
      <stop offset="1" stop-color="#FFBC5E"/>
    </linearGradient>
    <linearGradient id="paint8_linear" x1="2" y1="14" x2="10" y2="22" gradientUnits="userSpaceOnUse">
      <stop offset="0.259336" stop-color="#FFDB6E"/>
      <stop offset="1" stop-color="#FFBC5E"/>
    </linearGradient>
    <linearGradient id="paint9_linear" x1="4" y1="16" x2="8" y2="20" gradientUnits="userSpaceOnUse">
      <stop offset="0.259336" stop-color="#FFDB6E"/>
      <stop offset="1" stop-color="#FFBC5E"/>
    </linearGradient>
    <linearGradient id="paint10_linear" x1="30" y1="14" x2="38" y2="22" gradientUnits="userSpaceOnUse">
      <stop offset="0.259336" stop-color="#FFDB6E"/>
      <stop offset="1" stop-color="#FFBC5E"/>
    </linearGradient>
    <linearGradient id="paint11_linear" x1="32" y1="16" x2="36" y2="20" gradientUnits="userSpaceOnUse">
      <stop offset="0.259336" stop-color="#FFDB6E"/>
      <stop offset="1" stop-color="#FFBC5E"/>
    </linearGradient>
    <linearGradient id="paint12_linear" x1="16" y1="30" x2="24" y2="38" gradientUnits="userSpaceOnUse">
      <stop offset="0.259336" stop-color="#FFDB6E"/>
      <stop offset="1" stop-color="#FFBC5E"/>
    </linearGradient>
    <linearGradient id="paint13_linear" x1="18" y1="32" x2="22" y2="36" gradientUnits="userSpaceOnUse">
      <stop offset="0.259336" stop-color="#FFDB6E"/>
      <stop offset="1" stop-color="#FFBC5E"/>
    </linearGradient>
    <linearGradient id="paint14_linear" x1="20" y1="10" x2="20" y2="16" gradientUnits="userSpaceOnUse">
      <stop offset="0.259336" stop-color="#FFDB6E"/>
      <stop offset="1" stop-color="#FFBC5E"/>
    </linearGradient>
    <linearGradient id="paint15_linear" x1="14" y1="21" x2="10" y2="18" gradientUnits="userSpaceOnUse">
      <stop offset="0.259336" stop-color="#FFDB6E"/>
      <stop offset="1" stop-color="#FFBC5E"/>
    </linearGradient>
    <linearGradient id="paint16_linear" x1="26" y1="21" x2="30" y2="18" gradientUnits="userSpaceOnUse">
      <stop offset="0.259336" stop-color="#FFDB6E"/>
      <stop offset="1" stop-color="#FFBC5E"/>
    </linearGradient>
    <linearGradient id="paint17_linear" x1="20" y1="26" x2="20" y2="30" gradientUnits="userSpaceOnUse">
      <stop offset="0.259336" stop-color="#FFDB6E"/>
      <stop offset="1" stop-color="#FFBC5E"/>
    </linearGradient>
  </defs>
</svg>
