<?xml version="1.0" encoding="UTF-8" standalone="no"?>
<svg
   width="40"
   height="40"
   viewBox="0 0 22 40"
   fill="none"
   version="1.1"
   id="svg13290"
   sodipodi:docname="icon-app.svg"
   inkscape:version="1.2.2 (732a01da63, 2022-12-09)"
   xmlns:inkscape="http://www.inkscape.org/namespaces/inkscape"
   xmlns:sodipodi="http://sodipodi.sourceforge.net/DTD/sodipodi-0.dtd"
   xmlns="http://www.w3.org/2000/svg"
   xmlns:svg="http://www.w3.org/2000/svg">
  <sodipodi:namedview
     id="namedview13292"
     pagecolor="#ffffff"
     bordercolor="#000000"
     borderopacity="0.25"
     inkscape:showpageshadow="2"
     inkscape:pageopacity="0.0"
     inkscape:pagecheckerboard="0"
     inkscape:deskcolor="#d1d1d1"
     showgrid="false"
     inkscape:zoom="17.073351"
     inkscape:cx="30.544677"
     inkscape:cy="17.922668"
     inkscape:window-width="2560"
     inkscape:window-height="1369"
     inkscape:window-x="-8"
     inkscape:window-y="-8"
     inkscape:window-maximized="1"
     inkscape:current-layer="g13213" />
  <path
     opacity="0.15"
     fill-rule="evenodd"
     clip-rule="evenodd"
     d="m -6.4720707,3.7349843 c -0.344285,1.1619199 -0.1657833,0.6027853 -0.1442765,1.7071459 l 0.5857081,30.0757548 c 0.021507,1.104391 1.1060239,3.472297 2.3113965,3.347129 L 19.406453,36.46361 c 1.205406,-0.125171 0.437862,-12.323015 0.319994,-13.421308 -0.21476,-2.00105 7.362121,-3.736703 0.644278,-7.643135 C 19.415858,14.843911 20.922788,5.3424857 19.816449,4.8478296 18.84897,4.4152592 11.357556,0.86501459 10.173792,0.86501459 L 1.9153081,1.0450232 -4.7951982,1.3378773 -6.1423268,2.6221389 Z"
     fill="url(#paint0_linear)"
     id="path13274"
     style="fill:url(#paint0_linear);stroke-width:1.04744"
     sodipodi:nodetypes="ssssssssccccs" />
  <defs
     id="defs13288">
    <linearGradient
       id="paint0_linear"
       x1="5.0638781"
       y1="3.0499783"
       x2="27.658821"
       y2="23.615065"
       gradientUnits="userSpaceOnUse"
       gradientTransform="matrix(1.0971275,0,0,1,-7.0106252,-0.13498541)">
      <stop
         offset="0.259336"
         stop-color="#FFDB6E"
         id="stop13278" />
      <stop
         offset="1"
         stop-color="#FFBC5E"
         id="stop13280" />
    </linearGradient>
    <linearGradient
       id="paint1_linear"
       x1="1.59976"
       y1="8.08974e-07"
       x2="31.8368"
       y2="17.6727"
       gradientUnits="userSpaceOnUse">
      <stop
         offset="0.259336"
         stop-color="#FFDB6E"
         id="stop13283" />
      <stop
         offset="1"
         stop-color="#FFBC5E"
         id="stop13285" />
    </linearGradient>
  </defs>
  <g
     id="g13247"
     transform="matrix(0.09182453,0,0,0.07633828,-4.9803381,1.5889625)"
     style="fill:#000000">
	<g
   id="g13215"
   style="fill:#000000">
		<g
   id="g13213"
   style="fill:#000000"
   transform="translate(471.37544,-33.759152)">
			<path
   d="m -230.09786,419.84335 h -234.215 v -335.922 h 234.151 v 25.13 h 31.472 v -31.99 c 0.021,-30.134 -24.721,-54.811 -54.834,-54.811 h -187.385 c -30.156,0 -54.833,24.677 -54.833,54.811 v 393.02 c 0,30.178 24.677,54.833 54.833,54.833 h 187.385 c 30.113,0 54.855,-24.655 54.855,-54.833 v -50.821 h -31.429 c 0,0 0,0.583 0,0.583 z m -117.151,77.633 c -13.892,0 -25.108,-11.238 -25.108,-25.108 0,-13.913 11.217,-25.13 25.108,-25.13 13.913,0 25.152,11.238 25.152,25.13 0,13.87 -11.238,25.108 -25.152,25.108 z"
   id="path13203"
   style="fill:#ffdb6e;fill-opacity:1" />

			
			
			
			<path
   d="m -121.05414,241.55183 c -2.481,-12.986 -7.507,-25.001 -14.625,-35.506 l 25.195,-25.216 -25.734,-25.648 -25.152,25.173 c -10.462,-7.161 -22.541,-12.123 -35.484,-14.625 v -35.7 h -36.411 v 35.7 c -12.964,2.502 -24.936,7.485 -35.505,14.625 l -25.108,-25.173 -25.734,25.669 25.152,25.216 c -7.097,10.505 -12.101,22.52 -14.582,35.484 h -35.657 v 36.39 h 35.656 c 2.481,12.921 7.507,24.936 14.603,35.484 l -25.173,25.173 25.734,25.626 25.173,-25.152 c 10.527,7.161 22.541,12.144 35.505,14.668 v 35.635 h 36.411 v -35.656 c 12.942,-2.481 24.936,-7.507 35.484,-14.625 l 25.152,25.152 25.734,-25.648 -25.195,-25.173 c 7.118,-10.505 12.123,-22.541 14.625,-35.505 h 35.677999 v 0 -36.368 z m -93.962,57.788 c -21.894,0 -39.669,-17.688 -39.669,-39.604 0,-21.894 17.774,-39.69 39.669,-39.69 21.916,0 39.604,17.774 39.604,39.69 0,21.937 -17.732,39.604 -39.604,39.604 z"
   id="path13211"
   style="fill:#ffdb6e;fill-opacity:1" />

		</g>

	</g>

	<g
   id="g13217"
   style="fill:#000000">
	</g>

	<g
   id="g13219"
   style="fill:#000000">
	</g>

	<g
   id="g13221"
   style="fill:#000000">
	</g>

	<g
   id="g13223"
   style="fill:#000000">
	</g>

	<g
   id="g13225"
   style="fill:#000000">
	</g>

	<g
   id="g13227"
   style="fill:#000000">
	</g>

	<g
   id="g13229"
   style="fill:#000000">
	</g>

	<g
   id="g13231"
   style="fill:#000000">
	</g>

	<g
   id="g13233"
   style="fill:#000000">
	</g>

	<g
   id="g13235"
   style="fill:#000000">
	</g>

	<g
   id="g13237"
   style="fill:#000000">
	</g>

	<g
   id="g13239"
   style="fill:#000000">
	</g>

	<g
   id="g13241"
   style="fill:#000000">
	</g>

	<g
   id="g13243"
   style="fill:#000000">
	</g>

	<g
   id="g13245"
   inkscape:label="g13245"
   style="fill:#000000">
	</g>

</g>
</svg>
